<svg version="1.1" id="Layer_1" xmlns="http://www.w3.org/2000/svg" xmlns:xlink="http://www.w3.org/1999/xlink" x="0px" y="0px"
	 width="100%" viewBox="0 0 800 800" enable-background="new 0 0 800 800" xml:space="preserve">
<path fill="none" opacity="1.000000" stroke="none" 
	d="
M205.000000,1.000000 
	C254.023331,1.000000 303.046661,1.000000 352.534973,1.468657 
	C352.999939,50.758553 352.968018,99.579857 353.064545,148.400909 
	C353.071716,152.028519 352.118439,153.455246 348.281189,154.119186 
	C320.599426,158.908768 299.155762,183.040756 299.091675,211.751068 
	C298.859192,315.891724 298.991608,420.033173 299.040771,524.174316 
	C299.042206,527.271973 299.571350,530.379639 299.983215,533.465393 
	C303.820007,562.212891 330.487061,584.588379 360.479584,584.088562 
	C386.132843,583.661011 411.799072,584.047302 437.459106,583.954773 
	C441.890594,583.938782 446.386780,583.705750 450.739441,582.932739 
	C478.415039,578.017517 499.784027,554.110352 499.872589,525.736328 
	C500.195160,422.429352 500.012421,319.120728 499.957672,215.812729 
	C499.955322,211.382187 499.673187,206.895004 498.942871,202.531036 
	C494.885620,178.286896 475.877960,158.805664 451.270782,154.177963 
	C447.024872,153.379456 445.913574,152.046509 445.923462,147.963791 
	C446.041962,98.976082 446.000031,49.987991 446.000000,1.000000 
	C495.689972,1.000000 545.379944,1.000000 595.534973,1.468657 
	C595.999939,50.758659 595.968079,99.580070 596.064636,148.401230 
	C596.071777,152.029037 595.117859,153.455276 591.280884,154.119202 
	C563.599060,158.909073 542.155762,183.040985 542.091675,211.751389 
	C541.859253,315.891968 541.991638,420.033356 542.040771,524.174438 
	C542.042236,527.272156 542.571289,530.379761 542.983154,533.465576 
	C546.820251,562.212952 573.486755,584.588318 603.479858,584.088501 
	C629.133057,583.661011 654.799316,584.047302 680.459290,583.954773 
	C684.890808,583.938782 689.387085,583.705750 693.739685,582.932678 
	C721.415466,578.017151 742.784058,554.110168 742.872681,525.736084 
	C743.195190,422.429169 743.012390,319.120605 742.957703,215.812653 
	C742.955322,211.382095 742.673096,206.894943 741.942810,202.530930 
	C737.885620,178.286819 718.877686,158.805511 694.270691,154.177994 
	C690.024536,153.379486 688.913574,152.046265 688.923462,147.963715 
	C689.041992,98.976028 689.000000,49.987965 689.000000,1.000000 
	C726.327209,1.000000 763.654419,1.000000 800.986206,1.000000 
	C800.990845,267.616821 800.990845,534.233643 800.990845,800.925232 
	C534.426941,800.925232 267.853821,800.925232 1.140360,800.925232 
	C1.140360,534.333374 1.140360,267.666718 1.140360,1.000000 
	C37.415337,1.000000 73.742661,1.000000 110.534988,1.468657 
	C111.333206,12.374733 111.922554,22.811386 111.953812,33.249710 
	C112.069069,71.745071 111.960640,110.241096 112.065063,148.736511 
	C112.074600,152.253815 110.954048,153.497467 107.440002,154.093170 
	C79.616562,158.809723 58.166840,183.085617 58.098404,211.599152 
	C57.849220,315.420319 57.990120,419.242432 58.041489,523.064209 
	C58.043270,526.662109 58.485832,530.285034 59.012333,533.853638 
	C63.187340,562.151367 88.713257,584.028687 117.881142,584.004517 
	C143.878235,583.982971 169.875519,584.048340 195.872284,583.954834 
	C200.471039,583.938293 205.135300,583.718811 209.654236,582.932129 
	C237.310776,578.117249 258.777649,554.172729 258.868805,525.810303 
	C259.200928,422.489563 259.012360,319.167114 258.957611,215.845322 
	C258.955292,211.414169 258.670471,206.927216 257.944092,202.561646 
	C253.908737,178.310043 234.899353,158.828201 210.291885,154.176712 
	C206.075165,153.379623 204.912888,152.084534 204.922882,147.983429 
	C205.042450,98.989182 205.000031,49.994537 205.000000,1.000000 
z"/>
<path fill="#74A474" opacity="1.000000" stroke="none" 
	d="
M204.531342,1.000000 
	C205.000031,49.994537 205.042450,98.989182 204.922882,147.983429 
	C204.912888,152.084534 206.075165,153.379623 210.291885,154.176712 
	C234.899353,158.828201 253.908737,178.310043 257.944092,202.561646 
	C258.670471,206.927216 258.955292,211.414169 258.957611,215.845322 
	C259.012360,319.167114 259.200928,422.489563 258.868805,525.810303 
	C258.777649,554.172729 237.310776,578.117249 209.654236,582.932129 
	C205.135300,583.718811 200.471039,583.938293 195.872284,583.954834 
	C169.875519,584.048340 143.878235,583.982971 117.881142,584.004517 
	C88.713257,584.028687 63.187340,562.151367 59.012333,533.853638 
	C58.485832,530.285034 58.043270,526.662109 58.041489,523.064209 
	C57.990120,419.242432 57.849220,315.420319 58.098404,211.599152 
	C58.166840,183.085617 79.616562,158.809723 107.440002,154.093170 
	C110.954048,153.497467 112.074600,152.253815 112.065063,148.736511 
	C111.960640,110.241096 112.069069,71.745071 111.953812,33.249710 
	C111.922554,22.811386 111.333206,12.374733 111.000000,1.468657 
	C142.020889,1.000000 173.041794,1.000000 204.531342,1.000000 
z"/>
<path fill="#74A474" opacity="1.000000" stroke="none" 
	d="
M445.531342,1.000000 
	C446.000031,49.987991 446.041962,98.976082 445.923462,147.963791 
	C445.913574,152.046509 447.024872,153.379456 451.270782,154.177963 
	C475.877960,158.805664 494.885620,178.286896 498.942871,202.531036 
	C499.673187,206.895004 499.955322,211.382187 499.957672,215.812729 
	C500.012421,319.120728 500.195160,422.429352 499.872589,525.736328 
	C499.784027,554.110352 478.415039,578.017517 450.739441,582.932739 
	C446.386780,583.705750 441.890594,583.938782 437.459106,583.954773 
	C411.799072,584.047302 386.132843,583.661011 360.479584,584.088562 
	C330.487061,584.588379 303.820007,562.212891 299.983215,533.465393 
	C299.571350,530.379639 299.042206,527.271973 299.040771,524.174316 
	C298.991608,420.033173 298.859192,315.891724 299.091675,211.751068 
	C299.155762,183.040756 320.599426,158.908768 348.281189,154.119186 
	C352.118439,153.455246 353.071716,152.028519 353.064545,148.400909 
	C352.968018,99.579857 352.999939,50.758553 353.000000,1.468657 
	C383.687561,1.000000 414.375122,1.000000 445.531342,1.000000 
z"/>
<path fill="#74A474" opacity="1.000000" stroke="none" 
	d="
M688.531372,1.000000 
	C689.000000,49.987965 689.041992,98.976028 688.923462,147.963715 
	C688.913574,152.046265 690.024536,153.379486 694.270691,154.177994 
	C718.877686,158.805511 737.885620,178.286819 741.942810,202.530930 
	C742.673096,206.894943 742.955322,211.382095 742.957703,215.812653 
	C743.012390,319.120605 743.195190,422.429169 742.872681,525.736084 
	C742.784058,554.110168 721.415466,578.017151 693.739685,582.932678 
	C689.387085,583.705750 684.890808,583.938782 680.459290,583.954773 
	C654.799316,584.047302 629.133057,583.661011 603.479858,584.088501 
	C573.486755,584.588318 546.820251,562.212952 542.983154,533.465576 
	C542.571289,530.379761 542.042236,527.272156 542.040771,524.174438 
	C541.991638,420.033356 541.859253,315.891968 542.091675,211.751389 
	C542.155762,183.040985 563.599060,158.909073 591.280884,154.119202 
	C595.117859,153.455276 596.071777,152.029037 596.064636,148.401230 
	C595.968079,99.580070 595.999939,50.758659 596.000000,1.468657 
	C626.687561,1.000000 657.375122,1.000000 688.531372,1.000000 
z"/>
</svg>