<?xml version="1.0" standalone="no"?>
<!DOCTYPE svg PUBLIC "-//W3C//DTD SVG 20010904//EN"
 "http://www.w3.org/TR/2001/REC-SVG-20010904/DTD/svg10.dtd">
<svg version="1.0" xmlns="http://www.w3.org/2000/svg"
 width="630.000000pt" height="630.000000pt" viewBox="0 0 630.000000 630.000000"
 preserveAspectRatio="xMidYMid meet">
<metadata>
Created by potrace 1.14, written by Peter Selinger 2001-2017
</metadata>
<g transform="translate(0.000000,630.000000) scale(0.100000,-0.100000)"
fill="#000000" stroke="none">
<path d="M2140 5623 c-813 -12 -1470 -26 -1505 -31 -34 -6 -69 -27 -164 -100
-66 -51 -160 -129 -209 -172 l-90 -79 -6 -173 c-3 -95 -8 -361 -11 -590 -6
-411 -6 -417 14 -437 16 -16 34 -21 75 -21 l54 0 7 -217 c4 -120 6 -733 5
-1363 -1 -630 2 -1284 6 -1455 l9 -310 50 -25 c47 -23 59 -25 175 -22 69 2
224 4 345 5 153 2 230 7 252 16 l33 13 0 189 0 189 245 0 245 0 0 -37 c0 -48
32 -101 65 -109 15 -4 77 -5 139 -2 154 6 205 37 206 126 0 25 4 32 20 32 11
0 20 -2 20 -4 0 -35 25 -115 42 -133 20 -21 30 -23 127 -23 177 1 229 23 245
103 11 57 23 60 31 10 18 -108 34 -117 197 -111 165 6 207 27 211 107 1 44 4
45 70 35 20 -4 37 -12 37 -18 0 -30 23 -88 43 -107 20 -19 31 -21 152 -17 160
4 194 19 209 86 15 63 43 54 68 -23 8 -24 23 -44 38 -52 31 -16 205 -17 265
-2 40 10 105 60 105 80 0 22 17 6 29 -26 22 -61 43 -68 189 -63 143 5 181 17
202 68 l12 30 303 0 303 0 7 -71 c4 -39 4 -108 0 -154 -10 -118 -8 -121 74
-135 93 -16 668 -10 697 7 20 12 21 22 29 295 5 156 7 657 6 1113 -2 743 7
1435 25 1843 l6 142 92 -6 c76 -4 97 -2 126 13 48 25 57 50 69 188 15 172 14
862 -2 896 -29 64 -401 369 -524 430 l-88 44 -255 7 c-788 21 -2406 32 -3120
21z"/>
</g>
</svg>
